<svg width="48" height="48" viewBox="0 0 48 48" fill="none" xmlns="http://www.w3.org/2000/svg">
<path d="M8.25 42.0001L6.15 39.9001L27.15 18.9001C26.4167 17.3001 26.25 15.6417 26.65 13.9251C27.05 12.2084 28 10.6001 29.5 9.10006C31 7.63339 32.8167 6.69172 34.95 6.27506C37.0833 5.85839 38.8333 6.33339 40.2 7.70006C41.6 9.10006 42.075 10.8501 41.625 12.9501C41.175 15.0501 40.1667 16.9001 38.6 18.5001C37.2333 19.9001 35.7083 20.8167 34.025 21.2501C32.3417 21.6834 30.7667 21.5834 29.3 20.9501L25.95 24.3001L41.55 39.9001L39.45 42.0001L23.85 26.4001L8.25 42.0001ZM14.5 24.4501L8.55 18.5001C6.85 16.8001 5.96666 14.7834 5.9 12.4501C5.83333 10.1167 6.6 8.05006 8.2 6.25006L20.45 18.5001L14.5 24.4501Z" fill="#FB923C"/>
</svg>
